<svg width="114" height="37" viewBox="0 0 114 37" fill="none" xmlns="http://www.w3.org/2000/svg">
<path d="M23.804 2.21877V6.80422H14.7241V36.4864H9.12896V6.80422H0V2.21877H23.804Z" fill="black"/>
<path d="M53.1042 22.7793C53.1042 20.0511 53.6605 17.6351 54.773 15.5314C55.9182 13.4277 57.456 11.8006 59.3865 10.6501C61.3498 9.46674 63.5256 8.87507 65.9142 8.87507C67.6811 8.87507 69.4153 9.26952 71.1168 10.0584C72.8509 10.8144 74.2252 11.8334 75.2395 13.1154V0H80.8838V36.4864H75.2395V32.394C74.3233 33.7088 73.0472 34.7936 71.4112 35.6482C69.8079 36.5028 67.9593 36.9301 65.8652 36.9301C63.5093 36.9301 61.3498 36.3385 59.3865 35.1551C57.456 33.9389 55.9182 32.2625 54.773 30.1259C53.6605 27.9565 53.1042 25.5076 53.1042 22.7793ZM75.2395 22.878C75.2395 21.0043 74.8469 19.3772 74.0616 17.9967C73.309 16.6161 72.311 15.5642 71.0677 14.8411C69.8243 14.1179 68.4828 13.7564 67.0431 13.7564C65.6034 13.7564 64.2619 14.1179 63.0185 14.8411C61.7751 15.5314 60.7608 16.5668 59.9755 17.9474C59.2229 19.2951 58.8466 20.9057 58.8466 22.7793C58.8466 24.653 59.2229 26.2965 59.9755 27.7099C60.7608 29.1234 61.7751 30.2081 63.0185 30.9641C64.2946 31.6873 65.6361 32.0489 67.0431 32.0489C68.4828 32.0489 69.8243 31.6873 71.0677 30.9641C72.311 30.241 73.309 29.1891 74.0616 27.8086C74.8469 26.3951 75.2395 24.7516 75.2395 22.878Z" fill="black"/>
<path d="M99.963 36.9301C97.4108 36.9301 95.104 36.3549 93.0427 35.2044C90.9813 34.0211 89.3616 32.3776 88.1837 30.2738C87.0058 28.1373 86.4168 25.672 86.4168 22.878C86.4168 20.1168 87.0221 17.668 88.2328 15.5314C89.4434 13.3948 91.0958 11.7512 93.1899 10.6008C95.284 9.4503 97.6235 8.87507 100.208 8.87507C102.793 8.87507 105.133 9.4503 107.227 10.6008C109.321 11.7512 110.973 13.3948 112.184 15.5314C113.395 17.668 114 20.1168 114 22.878C114 25.6391 113.378 28.088 112.135 30.2245C110.892 32.3611 109.19 34.0211 107.031 35.2044C104.904 36.3549 102.548 36.9301 99.963 36.9301ZM99.963 32.0489C101.403 32.0489 102.744 31.7037 103.988 31.0134C105.264 30.3232 106.294 29.2877 107.08 27.9072C107.865 26.5266 108.258 24.8502 108.258 22.878C108.258 20.9057 107.881 19.2458 107.129 17.8981C106.376 16.5175 105.378 15.4821 104.135 14.7918C102.891 14.1015 101.55 13.7564 100.11 13.7564C98.6705 13.7564 97.329 14.1015 96.0856 14.7918C94.875 15.4821 93.9098 16.5175 93.1899 17.8981C92.4701 19.2458 92.1101 20.9057 92.1101 22.878C92.1101 25.8034 92.8463 28.0715 94.3187 29.6822C95.8239 31.26 97.7053 32.0489 99.963 32.0489Z" fill="black"/>
<path d="M35.1518 8.75181C27.3898 8.75181 21.0923 15.0782 21.0923 22.8759C21.0923 30.6736 27.3898 37 35.1518 37C42.9138 37 49.2113 30.6736 49.2113 22.8759C49.2113 15.0782 42.9138 8.75181 35.1518 8.75181ZM42.3866 19.4626L34.1266 27.7899C33.863 28.0547 33.4822 28.2313 33.1015 28.2313C32.7207 28.2313 32.3399 28.0842 32.0763 27.7899L27.917 23.6115C27.3312 23.023 27.3312 22.1108 27.917 21.5223C28.5028 20.9338 29.4108 20.9338 29.9967 21.5223L33.1015 24.6414L40.3362 17.3734C40.9221 16.7849 41.8301 16.7849 42.4159 17.3734C42.9724 17.9619 42.9724 18.8741 42.3866 19.4626Z" fill="black"/>
</svg>
