<svg width="58" height="19" viewBox="0 0 58 19" fill="none" xmlns="http://www.w3.org/2000/svg">
<path d="M12.1108 1.13937V3.49406H7.49122V18.7363H4.64456V3.49406H0V1.13937H12.1108Z" fill="black"/>
<path d="M27.0179 11.6975C27.0179 10.2965 27.3009 9.05586 27.867 7.97557C28.4496 6.89528 29.232 6.05974 30.2142 5.46896C31.213 4.8613 32.3201 4.55747 33.5353 4.55747C34.4343 4.55747 35.3166 4.76002 36.1822 5.16513C37.0645 5.55336 37.7637 6.07662 38.2797 6.73492V0H41.1514V18.7363H38.2797V16.6348C37.8136 17.3099 37.1644 17.867 36.332 18.3058C35.5163 18.7447 34.5758 18.9641 33.5103 18.9641C32.3117 18.9641 31.213 18.6603 30.2142 18.0526C29.232 17.4281 28.4496 16.5672 27.867 15.4701C27.3009 14.356 27.0179 13.0985 27.0179 11.6975ZM38.2797 11.7481C38.2797 10.786 38.08 9.95047 37.6805 9.24153C37.2976 8.53259 36.7898 7.99245 36.1572 7.6211C35.5246 7.24975 34.8421 7.06407 34.1096 7.06407C33.3772 7.06407 32.6946 7.24975 32.062 7.6211C31.4294 7.97557 30.9134 8.50727 30.5139 9.21621C30.131 9.90827 29.9395 10.7354 29.9395 11.6975C29.9395 12.6596 30.131 13.5036 30.5139 14.2294C30.9134 14.9552 31.4294 15.5123 32.062 15.9005C32.7113 16.2718 33.3938 16.4575 34.1096 16.4575C34.8421 16.4575 35.5246 16.2718 36.1572 15.9005C36.7898 15.5292 37.2976 14.989 37.6805 14.2801C38.08 13.5542 38.2797 12.7103 38.2797 11.7481Z" fill="black"/>
<path d="M50.8584 18.9641C49.5599 18.9641 48.3863 18.6687 47.3375 18.078C46.2887 17.4703 45.4647 16.6263 44.8654 15.546C44.2661 14.4489 43.9664 13.1829 43.9664 11.7481C43.9664 10.3303 44.2744 9.07274 44.8904 7.97557C45.5063 6.8784 46.347 6.03442 47.4124 5.44364C48.4778 4.85286 49.6681 4.55747 50.9832 4.55747C52.2983 4.55747 53.4886 4.85286 54.554 5.44364C55.6195 6.03442 56.4601 6.8784 57.0761 7.97557C57.692 9.07274 58 10.3303 58 11.7481C58 13.166 57.6837 14.4235 57.0511 15.5207C56.4185 16.6179 55.5529 17.4703 54.4542 18.078C53.3721 18.6687 52.1735 18.9641 50.8584 18.9641ZM50.8584 16.4575C51.5908 16.4575 52.2734 16.2803 52.906 15.9258C53.5552 15.5713 54.0796 15.0396 54.4791 14.3307C54.8787 13.6218 55.0784 12.7609 55.0784 11.7481C55.0784 10.7354 54.887 9.88295 54.5041 9.19089C54.1212 8.48195 53.6135 7.95025 52.9809 7.59578C52.3483 7.24131 51.6658 7.06407 50.9333 7.06407C50.2008 7.06407 49.5183 7.24131 48.8857 7.59578C48.2697 7.95025 47.7786 8.48195 47.4124 9.19089C47.0462 9.88295 46.8631 10.7354 46.8631 11.7481C46.8631 13.2504 47.2376 14.4151 47.9867 15.2422C48.7525 16.0524 49.7097 16.4575 50.8584 16.4575Z" fill="black"/>
<path d="M17.8843 4.49417C13.9352 4.49417 10.7312 7.74287 10.7312 11.7471C10.7312 15.7513 13.9352 19 17.8843 19C21.8333 19 25.0373 15.7513 25.0373 11.7471C25.0373 7.74287 21.8333 4.49417 17.8843 4.49417ZM21.5651 9.9943L17.3627 14.2705C17.2286 14.4065 17.0348 14.4971 16.8411 14.4971C16.6474 14.4971 16.4536 14.4216 16.3195 14.2705L14.2034 12.1248C13.9054 11.8226 13.9054 11.3542 14.2034 11.052C14.5014 10.7498 14.9634 10.7498 15.2615 11.052L16.8411 12.6537L20.5219 8.92147C20.82 8.61926 21.282 8.61926 21.58 8.92147C21.8631 9.22367 21.8631 9.69209 21.5651 9.9943Z" fill="black"/>
</svg>
