<svg width="29" height="29" viewBox="0 0 29 29" fill="none" xmlns="http://www.w3.org/2000/svg">
<path d="M14.1518 0.751831C6.38977 0.751831 0.0922852 7.07825 0.0922852 14.8759C0.0922852 22.6736 6.38977 29 14.1518 29C21.9138 29 28.2113 22.6736 28.2113 14.8759C28.2113 7.07825 21.9138 0.751831 14.1518 0.751831ZM21.3866 11.4626L13.1266 19.7899C12.863 20.0548 12.4822 20.2313 12.1014 20.2313C11.7207 20.2313 11.3399 20.0842 11.0763 19.7899L6.917 15.6116C6.33119 15.0231 6.33119 14.1109 6.917 13.5224C7.50281 12.9339 8.41082 12.9339 8.99663 13.5224L12.1014 16.6414L19.3362 9.37342C19.922 8.78491 20.83 8.78491 21.4159 9.37342C21.9724 9.96192 21.9724 10.8741 21.3866 11.4626Z" fill="black"/>
</svg>
